<svg width="18" height="16" viewBox="0 0 18 16" fill="none" xmlns="http://www.w3.org/2000/svg">
<path d="M8.99939 0C4.46985 0 0.796875 3.67233 0.796875 8.20251C0.796875 11.8267 3.14714 14.9013 6.40627 15.9859C6.81619 16.0618 6.96672 15.808 6.96672 15.5913C6.96672 15.3957 6.95907 14.7495 6.9556 14.0642C4.67358 14.5603 4.19207 13.0964 4.19207 13.0964C3.81895 12.1483 3.28133 11.8962 3.28133 11.8962C2.53715 11.3871 3.33743 11.3975 3.33743 11.3975C4.16112 11.4554 4.59484 12.2428 4.59484 12.2428C5.32641 13.4968 6.51371 13.1343 6.98178 12.9247C7.05537 12.3945 7.26799 12.0327 7.50254 11.8279C5.68069 11.6204 3.76542 10.9171 3.76542 7.77413C3.76542 6.87865 4.08586 6.14688 4.6106 5.57247C4.52543 5.36584 4.24469 4.5316 4.69005 3.40175C4.69005 3.40175 5.37884 3.18129 6.94633 4.24256C7.60058 4.06076 8.3023 3.96967 8.99939 3.96658C9.69648 3.96967 10.3987 4.06076 11.0542 4.24256C12.6199 3.18129 13.3077 3.40175 13.3077 3.40175C13.7542 4.5316 13.4733 5.36584 13.3881 5.57247C13.914 6.14688 14.2323 6.87858 14.2323 7.77413C14.2323 10.9245 12.3134 11.6183 10.4869 11.8213C10.7811 12.0759 11.0432 12.5751 11.0432 13.3403C11.0432 14.4378 11.0337 15.3211 11.0337 15.5913C11.0337 15.8096 11.1814 16.0654 11.5972 15.9848C14.8545 14.899 17.2018 11.8254 17.2018 8.20251C17.2018 3.67233 13.5294 0 8.99939 0Z" fill="#24292F"/>
<path d="M3.86813 11.6845C3.85012 11.7252 3.78592 11.7374 3.72757 11.7095C3.66806 11.6828 3.63461 11.6272 3.65391 11.5863C3.6716 11.5443 3.7358 11.5326 3.79518 11.5608C3.85481 11.5875 3.88878 11.6436 3.86813 11.6845ZM4.27161 12.0445C4.2325 12.0808 4.15601 12.0639 4.1041 12.0066C4.05044 11.9494 4.04041 11.873 4.0801 11.8361C4.12044 11.7999 4.19461 11.8168 4.24839 11.8741C4.30204 11.9319 4.31246 12.0079 4.27155 12.0446M4.54843 12.5051C4.49812 12.54 4.41591 12.5073 4.36515 12.4343C4.31491 12.3615 4.31491 12.274 4.36625 12.2389C4.4172 12.2038 4.49812 12.2354 4.54959 12.3077C4.59977 12.3819 4.59977 12.4694 4.54837 12.5052M5.0165 13.0386C4.97154 13.0881 4.87581 13.0749 4.80569 13.0072C4.73403 12.9411 4.71402 12.8472 4.75911 12.7976C4.8046 12.748 4.9009 12.7619 4.97153 12.829C5.04275 12.895 5.06449 12.9896 5.01657 13.0386M5.62147 13.2187C5.60172 13.2829 5.50947 13.3121 5.41658 13.2849C5.32381 13.2568 5.26308 13.1815 5.2818 13.1166C5.3011 13.0519 5.39374 13.0215 5.48734 13.0507C5.57998 13.0787 5.64083 13.1534 5.62153 13.2187M6.31007 13.2951C6.31238 13.3628 6.23358 13.4189 6.13605 13.4201C6.03795 13.4222 5.95863 13.3675 5.9576 13.3009C5.9576 13.2326 6.0346 13.177 6.13264 13.1754C6.23017 13.1735 6.31007 13.2279 6.31007 13.2951ZM6.98644 13.2692C6.99815 13.3352 6.93035 13.403 6.83353 13.421C6.73832 13.4384 6.65019 13.3976 6.63803 13.3322C6.62619 13.2645 6.69528 13.1968 6.7903 13.1792C6.88731 13.1624 6.97409 13.2021 6.98644 13.2692Z" fill="#24292F"/>
</svg>
