<svg width="16" height="16" viewBox="0 0 16 16" fill="none" xmlns="http://www.w3.org/2000/svg">
<path d="M15.68 8.18181C15.68 7.61453 15.6291 7.06909 15.5346 6.54541H8V9.63997H12.3054C12.12 10.64 11.5564 11.4872 10.7091 12.0545V14.0618H13.2946C14.8073 12.6691 15.68 10.6181 15.68 8.18181Z" fill="#4285F4"/>
<path d="M8.00068 16C10.1607 16 11.9716 15.2836 13.2952 14.0619L10.7097 12.0546C9.9934 12.5346 9.077 12.8182 8.00068 12.8182C5.917 12.8182 4.1534 11.4109 3.52428 9.52002H0.851562V11.5927C2.16796 14.2073 4.8734 16 8.00068 16Z" fill="#34A853"/>
<path d="M3.5236 9.51995C3.3636 9.03995 3.27272 8.52723 3.27272 7.99995C3.27272 7.47267 3.3636 6.95995 3.5236 6.47995V4.40723H0.85088C0.30912 5.48723 0 6.70907 0 7.99995C0 9.29083 0.30912 10.5127 0.85088 11.5927L3.5236 9.51995Z" fill="#FBBC04"/>
<path d="M8.00068 3.18184C9.17516 3.18184 10.2297 3.58544 11.0588 4.37816L13.3534 2.0836C11.968 0.79272 10.157 0 8.00068 0C4.8734 0 2.16796 1.79272 0.851562 4.40728L3.52428 6.48C4.1534 4.58912 5.917 3.18184 8.00068 3.18184Z" fill="#E94235"/>
</svg>
