<svg width="40" height="40" viewBox="0 0 40 40" fill="none" xmlns="http://www.w3.org/2000/svg">
<g id="project-icon">
<rect id="shape" width="40" height="40" rx="6" fill="#00EA6E"/>
<path id="Union" fill-rule="evenodd" clip-rule="evenodd" d="M32 21.6754C31.0447 21.6754 30.0988 21.8631 29.2163 22.2278C28.3338 22.5925 27.5319 23.127 26.8564 23.8008C26.1809 24.4747 25.6452 25.2746 25.2796 26.155C24.9561 26.9341 24.7715 27.7627 24.7334 28.6034C24.7251 28.7848 24.5787 28.9321 24.3971 28.9321H22.3012C22.3012 27.6614 22.552 26.4033 23.0394 25.2294C23.5268 24.0555 24.2413 22.9889 25.1419 22.0904C25.7844 21.4495 26.5127 20.9031 27.3046 20.466C26.5127 20.0289 25.7844 19.4825 25.1419 18.8416C24.2413 17.9431 23.5268 16.8765 23.0394 15.7026C22.552 14.5288 22.3012 13.2706 22.3012 12H24.3971C24.5787 12 24.7251 12.1473 24.7334 12.3287C24.7715 13.1694 24.9561 13.9979 25.2796 14.777C25.6452 15.6574 26.1809 16.4574 26.8564 17.1312C27.5319 17.805 28.3338 18.3395 29.2163 18.7042C30.0988 19.0689 31.0447 19.2566 32 19.2566V21.6754ZM17.6988 12.0002C17.6988 13.2708 17.448 14.5289 16.9606 15.7028C16.4731 16.8767 15.7587 17.9433 14.8581 18.8417C14.2156 19.4827 13.4874 20.029 12.6955 20.4661C13.4874 20.9032 14.2156 21.4496 14.8581 22.0905C15.7587 22.989 16.4731 24.0556 16.9606 25.2294C17.448 26.4033 17.6988 27.6615 17.6988 28.9321H15.6029C15.4213 28.9321 15.2749 28.7849 15.2666 28.6035C15.2284 27.7628 15.0439 26.9342 14.7204 26.1551C14.3548 25.2747 13.819 24.4747 13.1436 23.8009C12.4681 23.1271 11.6662 22.5925 10.7837 22.2279C9.90896 21.8665 8.97199 21.6788 8.02537 21.6755C8.01692 21.6756 8.00846 21.6756 8 21.6756V21.6755V19.2567V19.2567C8.00848 19.2567 8.01697 19.2567 8.02545 19.2567C8.97204 19.2534 9.90898 19.0658 10.7837 18.7044C11.6662 18.3397 12.4681 17.8052 13.1436 17.1313C13.819 16.4575 14.3548 15.6575 14.7204 14.7771C15.0439 13.9981 15.2284 13.1695 15.2666 12.3288C15.2749 12.1474 15.4213 12.0002 15.6029 12.0002H17.6988Z" fill="white"/>
</g>
</svg>
