<svg width="17" height="12" viewBox="0 0 17 12" fill="none" xmlns="http://www.w3.org/2000/svg">
<path fill-rule="evenodd" clip-rule="evenodd" d="M12.1421 4.84872C12.5972 5.30297 13.1131 5.69021 13.674 5.99998C13.1131 6.30976 12.5972 6.69701 12.1421 7.15123C11.5042 7.78799 10.9981 8.54393 10.6529 9.37584C10.3076 10.2078 10.1299 11.0995 10.1299 12H11.6146C11.7432 12 11.8469 11.8956 11.8528 11.7671C11.8798 11.1712 12.0106 10.584 12.2397 10.0319C12.4986 9.40794 12.8781 8.84102 13.3566 8.36341C13.835 7.88585 14.403 7.50704 15.0282 7.24863C15.6533 6.99016 16.3233 6.85711 17 6.8571V5.14284C16.3233 5.14284 15.6533 5.00982 15.0282 4.75137C14.403 4.49292 13.835 4.1141 13.3566 3.63654C12.8781 3.15898 12.4986 2.59204 12.2397 1.96808C12.0106 1.41596 11.8798 0.828755 11.8528 0.232936C11.8469 0.10438 11.7432 0 11.6146 0H10.1299C10.1299 0.900493 10.3076 1.79217 10.6529 2.62411C10.9981 3.45606 11.5042 4.21198 12.1421 4.84872ZM6.87001 0.000152588C6.87001 0.900642 6.69232 1.79232 6.34707 2.62426C6.00181 3.4562 5.49575 4.21213 4.85782 4.84887C4.40274 5.30309 3.88691 5.69031 3.32601 6.00007C3.88691 6.30984 4.40274 6.69707 4.85782 7.15126C5.49575 7.78802 6.00181 8.54397 6.34707 9.37587C6.69232 10.2078 6.87001 11.0995 6.87001 12H5.38538C5.25676 12 5.15305 11.8957 5.14721 11.7671C5.12014 11.1713 4.98941 10.584 4.76028 10.0319C4.50134 9.40797 4.12182 8.841 3.64336 8.36344C3.16491 7.88589 2.5969 7.50707 1.97177 7.24866C1.3545 6.99344 0.693456 6.8605 0.0254929 6.8572C0.0169961 6.85724 0.00849842 6.85725 0 6.85725V6.85714V5.143V5.14289C0.0084985 5.14289 0.0169962 5.1429 0.0254931 5.14294C0.693456 5.13964 1.3545 5.00673 1.97177 4.75152C2.5969 4.49307 3.16491 4.11425 3.64336 3.63669C4.12182 3.15913 4.50134 2.5922 4.76028 1.96823C4.98941 1.41611 5.12014 0.82891 5.14721 0.233088C5.15305 0.104533 5.25676 0.000152588 5.38538 0.000152588H6.87001Z" fill="white"/>
</svg>
